<?xml version="1.0" encoding="UTF-8"?>
<svg xmlns="http://www.w3.org/2000/svg" xmlns:xlink="http://www.w3.org/1999/xlink" width="147.6pt" height="154.5pt" viewBox="0 0 147.6 154.5" version="1.1">
<defs>
<clipPath id="clip1">
  <path d="M 110 52 L 147.601563 52 L 147.601563 106 L 110 106 Z M 110 52 "/>
</clipPath>
<clipPath id="clip2">
  <path d="M 113 102 L 147.601563 102 L 147.601563 118 L 113 118 Z M 113 102 "/>
</clipPath>
<clipPath id="clip3">
  <path d="M 109 99 L 147.601563 99 L 147.601563 121 L 109 121 Z M 109 99 "/>
</clipPath>
<clipPath id="clip4">
  <path d="M 132 100 L 147.601563 100 L 147.601563 119 L 132 119 Z M 132 100 "/>
</clipPath>
<clipPath id="clip5">
  <path d="M 5 131 L 142 131 L 142 154.5 L 5 154.5 Z M 5 131 "/>
</clipPath>
</defs>
<g id="surface1">
<path style="fill-rule:evenodd;fill:rgb(54.492188%,74.021912%,14.501953%);fill-opacity:1;stroke-width:5.669;stroke-linecap:butt;stroke-linejoin:miter;stroke:rgb(54.492188%,74.021912%,14.501953%);stroke-opacity:1;stroke-miterlimit:4;" d="M 735.898438 856.992188 C 837.382813 898.046875 939.84375 942.8125 1047.695313 964.179688 C 1139.765625 965.859375 1231.875 967.539063 1323.945313 969.179688 C 1381.445313 998.984375 1368.046875 1096.992188 1297.695313 1099.179688 C 1236.953125 1095.664063 1226.328125 1058.125 1231.445313 1020.429688 C 906.328125 1022.890625 566.640625 1022.929688 240.390625 1020.429688 C 245.507813 1058.125 234.882813 1095.664063 174.140625 1099.179688 C 103.789063 1096.992188 90.390625 998.984375 147.890625 969.179688 C 239.960938 967.539063 332.03125 965.859375 424.140625 964.179688 C 531.992188 942.8125 634.453125 898.046875 735.898438 856.992188 Z M 735.898438 856.992188 " transform="matrix(0.1,0,0,-0.1,0,154.5)"/>
<path style=" stroke:none;fill-rule:evenodd;fill:rgb(0%,0%,0%);fill-opacity:1;" d="M 62.339844 40.058594 L 57.652344 52.058594 L 65.277344 58.808594 L 69.835938 114.558594 L 76.964844 114.558594 L 81.585938 58.558594 L 89.523438 51.996094 L 84.023438 40.058594 Z M 62.339844 40.058594 "/>
<path style="fill-rule:evenodd;fill:rgb(0%,38.818359%,21.972656%);fill-opacity:1;stroke-width:5.669;stroke-linecap:butt;stroke-linejoin:miter;stroke:rgb(0%,38.818359%,21.972656%);stroke-opacity:1;stroke-miterlimit:4;" d="M 660.859375 962.890625 L 692.109375 959.140625 L 698.359375 529.140625 Z M 660.859375 962.890625 " transform="matrix(0.1,0,0,-0.1,0,154.5)"/>
<path style="fill-rule:evenodd;fill:rgb(0%,38.818359%,21.972656%);fill-opacity:1;stroke-width:5.669;stroke-linecap:butt;stroke-linejoin:miter;stroke:rgb(0%,38.818359%,21.972656%);stroke-opacity:1;stroke-miterlimit:4;" d="M 806.40625 962.890625 L 775.15625 959.140625 L 768.90625 529.140625 Z M 806.40625 962.890625 " transform="matrix(0.1,0,0,-0.1,0,154.5)"/>
<path style="fill-rule:evenodd;fill:rgb(0%,38.818359%,21.972656%);fill-opacity:1;stroke-width:5.669;stroke-linecap:butt;stroke-linejoin:miter;stroke:rgb(0%,38.818359%,21.972656%);stroke-opacity:1;stroke-miterlimit:4;" d="M 705.585938 405.351563 L 760.585938 405.351563 L 760.585938 960.351563 L 705.585938 960.351563 Z M 705.585938 405.351563 " transform="matrix(0.1,0,0,-0.1,0,154.5)"/>
<path style="fill-rule:evenodd;fill:rgb(0%,38.818359%,21.972656%);fill-opacity:1;stroke-width:5.669;stroke-linecap:butt;stroke-linejoin:miter;stroke:rgb(0%,38.818359%,21.972656%);stroke-opacity:1;stroke-miterlimit:4;" d="M 615.898438 1093.789063 L 854.023438 1093.789063 L 880.898438 1035.664063 L 592.148438 1035.664063 Z M 615.898438 1093.789063 " transform="matrix(0.1,0,0,-0.1,0,154.5)"/>
<path style="fill-rule:evenodd;fill:rgb(0%,38.818359%,21.972656%);fill-opacity:1;stroke-width:5.669;stroke-linecap:butt;stroke-linejoin:miter;stroke:rgb(0%,38.818359%,21.972656%);stroke-opacity:1;stroke-miterlimit:4;" d="M 590.898438 1023.789063 L 879.648438 1023.789063 L 817.773438 970.039063 L 650.273438 970.039063 Z M 590.898438 1023.789063 " transform="matrix(0.1,0,0,-0.1,0,154.5)"/>
<path style="fill-rule:evenodd;fill:rgb(0%,38.818359%,21.972656%);fill-opacity:1;stroke-width:5.669;stroke-linecap:butt;stroke-linejoin:miter;stroke:rgb(0%,38.818359%,21.972656%);stroke-opacity:1;stroke-miterlimit:4;" d="M 628.398438 1137.539063 L 833.398438 1137.539063 L 847.773438 1106.914063 L 618.398438 1106.914063 Z M 628.398438 1137.539063 " transform="matrix(0.1,0,0,-0.1,0,154.5)"/>
<path style="fill:none;stroke-width:5.669;stroke-linecap:butt;stroke-linejoin:miter;stroke:rgb(54.492188%,74.021912%,14.501953%);stroke-opacity:1;stroke-miterlimit:4;" d="M 168.242188 984.53125 L 4.179688 520.117188 L 344.375 519.648438 Z M 168.242188 984.53125 " transform="matrix(0.1,0,0,-0.1,0,154.5)"/>
<path style="fill-rule:evenodd;fill:rgb(54.492188%,74.021912%,14.501953%);fill-opacity:1;stroke-width:5.669;stroke-linecap:butt;stroke-linejoin:miter;stroke:rgb(54.492188%,74.021912%,14.501953%);stroke-opacity:1;stroke-miterlimit:4;" d="M 344.492188 519.53125 C 344.492188 421.679688 268.085938 373.28125 173.867188 373.28125 C 79.609375 373.28125 3.242188 421.679688 3.242188 519.53125 Z M 344.492188 519.53125 " transform="matrix(0.1,0,0,-0.1,0,154.5)"/>
<g clip-path="url(#clip1)" clip-rule="nonzero">
<path style="fill:none;stroke-width:5.669;stroke-linecap:butt;stroke-linejoin:miter;stroke:rgb(54.492188%,74.021912%,14.501953%);stroke-opacity:1;stroke-miterlimit:4;" d="M 1296.210938 984.53125 L 1132.148438 520.117188 L 1472.34375 519.648438 Z M 1296.210938 984.53125 " transform="matrix(0.1,0,0,-0.1,0,154.5)"/>
</g>
<g clip-path="url(#clip2)" clip-rule="nonzero">
<path style=" stroke:none;fill-rule:evenodd;fill:rgb(54.492188%,74.021912%,14.501953%);fill-opacity:1;" d="M 147.246094 102.546875 C 147.246094 112.332031 139.605469 117.171875 130.183594 117.171875 C 120.761719 117.171875 113.121094 112.332031 113.121094 102.546875 Z M 147.246094 102.546875 "/>
</g>
<g clip-path="url(#clip3)" clip-rule="nonzero">
<path style="fill:none;stroke-width:5.669;stroke-linecap:butt;stroke-linejoin:miter;stroke:rgb(54.492188%,74.021912%,14.501953%);stroke-opacity:1;stroke-miterlimit:4;" d="M 1472.460938 519.53125 C 1472.460938 421.679688 1396.054688 373.28125 1301.835938 373.28125 C 1207.617188 373.28125 1131.210938 421.679688 1131.210938 519.53125 Z M 1472.460938 519.53125 " transform="matrix(0.1,0,0,-0.1,0,154.5)"/>
</g>
<path style=" stroke:none;fill-rule:evenodd;fill:rgb(0%,0%,0%);fill-opacity:1;" d="M 145.570313 104.085938 C 146.007813 104.023438 145.457031 105.925781 144.070313 109.664063 C 142.679688 113.402344 136.34375 115.523438 135.914063 115.523438 C 135.480469 115.523438 141.121094 113.222656 142.582031 109.617188 C 144.042969 106.007813 145.136719 104.144531 145.570313 104.085938 Z M 145.570313 104.085938 "/>
<g clip-path="url(#clip4)" clip-rule="nonzero">
<path style="fill:none;stroke-width:5.669;stroke-linecap:butt;stroke-linejoin:miter;stroke:rgb(0%,0.784302%,0%);stroke-opacity:1;stroke-miterlimit:4;" d="M 1455.703125 504.140625 C 1460.078125 504.765625 1454.570313 485.742188 1440.703125 448.359375 C 1426.796875 410.976563 1363.4375 389.765625 1359.140625 389.765625 C 1354.804688 389.765625 1411.210938 412.773438 1425.820313 448.828125 C 1440.429688 484.921875 1451.367188 503.554688 1455.703125 504.140625 Z M 1455.703125 504.140625 " transform="matrix(0.1,0,0,-0.1,0,154.5)"/>
</g>
<g clip-path="url(#clip5)" clip-rule="nonzero">
<path style=" stroke:none;fill-rule:evenodd;fill:rgb(0%,0%,0%);fill-opacity:1;" d="M 5.914063 148.71875 L 5.914063 147.382813 C 7.128906 148.15625 8.363281 148.546875 9.609375 148.546875 C 10.9375 148.546875 11.949219 148.269531 12.632813 147.71875 C 13.320313 147.167969 13.664063 146.398438 13.664063 145.410156 C 13.664063 144.542969 13.433594 143.847656 12.972656 143.332031 C 12.511719 142.8125 11.507813 142.105469 9.96875 141.214844 C 8.246094 140.207031 7.152344 139.367188 6.695313 138.691406 C 6.238281 138.015625 6.007813 137.234375 6.007813 136.347656 C 6.007813 135.144531 6.476563 134.125 7.410156 133.285156 C 8.339844 132.449219 9.582031 132.027344 11.140625 132.027344 C 12.152344 132.027344 13.160156 132.195313 14.175781 132.539063 L 14.175781 133.773438 C 13.179688 133.324219 12.113281 133.097656 10.984375 133.097656 C 9.828125 133.097656 8.914063 133.386719 8.238281 133.972656 C 7.5625 134.558594 7.226563 135.300781 7.226563 136.203125 C 7.226563 137.070313 7.457031 137.765625 7.917969 138.277344 C 8.382813 138.792969 9.378906 139.492188 10.914063 140.375 C 12.507813 141.277344 13.5625 142.078125 14.089844 142.777344 C 14.617188 143.476563 14.878906 144.28125 14.878906 145.195313 C 14.878906 146.496094 14.425781 147.558594 13.523438 148.378906 C 12.617188 149.203125 11.335938 149.613281 9.683594 149.613281 C 9.101563 149.613281 8.425781 149.523438 7.664063 149.34375 C 6.902344 149.164063 6.320313 148.957031 5.914063 148.71875 Z M 18.546875 143.296875 C 18.546875 144.964844 18.929688 146.269531 19.699219 147.210938 C 20.472656 148.148438 21.53125 148.617188 22.871094 148.617188 C 24.230469 148.617188 25.558594 148.117188 26.855469 147.113281 L 26.855469 148.273438 C 25.597656 149.167969 24.195313 149.613281 22.644531 149.613281 C 21.082031 149.613281 19.8125 149.050781 18.851563 147.929688 C 17.886719 146.808594 17.40625 145.226563 17.40625 143.175781 C 17.40625 141.40625 17.910156 139.917969 18.917969 138.703125 C 19.925781 137.492188 21.234375 136.886719 22.851563 136.886719 C 24.359375 136.886719 25.519531 137.414063 26.324219 138.472656 C 27.128906 139.535156 27.535156 140.980469 27.535156 142.8125 L 27.535156 143.296875 Z M 26.394531 142.300781 C 26.347656 140.90625 26.011719 139.816406 25.386719 139.042969 C 24.761719 138.269531 23.898438 137.882813 22.800781 137.882813 C 21.660156 137.882813 20.722656 138.261719 19.972656 139.027344 C 19.222656 139.789063 18.765625 140.882813 18.589844 142.300781 Z M 36.277344 138.324219 C 35.910156 138.058594 35.484375 137.929688 34.992188 137.929688 C 34.035156 137.929688 33.234375 138.425781 32.582031 139.410156 C 31.933594 140.398438 31.613281 141.804688 31.613281 143.617188 L 31.613281 149.324219 L 30.542969 149.324219 L 30.542969 137.175781 L 31.613281 137.175781 L 31.613281 139.871094 L 31.660156 139.871094 C 31.933594 138.941406 32.375 138.226563 32.976563 137.707031 C 33.578125 137.191406 34.277344 136.933594 35.066406 136.933594 C 35.515625 136.933594 35.917969 137.007813 36.277344 137.148438 Z M 44.03125 149.324219 L 43.035156 149.324219 L 38.339844 137.175781 L 39.5625 137.175781 L 43.179688 146.839844 C 43.351563 147.308594 43.472656 147.726563 43.546875 148.109375 L 43.59375 148.109375 C 43.695313 147.609375 43.808594 147.203125 43.9375 146.886719 L 47.671875 137.175781 L 48.859375 137.175781 Z M 51.582031 134.117188 C 51.34375 134.117188 51.136719 134.03125 50.957031 133.855469 C 50.773438 133.683594 50.679688 133.460938 50.679688 133.191406 C 50.679688 132.933594 50.773438 132.722656 50.960938 132.5625 C 51.144531 132.398438 51.351563 132.320313 51.582031 132.320313 C 51.832031 132.320313 52.046875 132.394531 52.230469 132.554688 C 52.417969 132.710938 52.511719 132.925781 52.511719 133.191406 C 52.511719 133.445313 52.417969 133.664063 52.234375 133.84375 C 52.054688 134.027344 51.839844 134.117188 51.582031 134.117188 Z M 51.050781 137.175781 L 52.140625 137.175781 L 52.140625 149.324219 L 51.050781 149.324219 Z M 63.898438 148.785156 C 63 149.339844 61.921875 149.613281 60.671875 149.613281 C 59.019531 149.613281 57.683594 149.046875 56.671875 147.914063 C 55.660156 146.78125 55.15625 145.292969 55.15625 143.464844 C 55.15625 141.535156 55.726563 139.957031 56.863281 138.726563 C 58.003906 137.5 59.464844 136.886719 61.257813 136.886719 C 62.179688 136.886719 63.078125 137.074219 63.949219 137.457031 L 63.949219 138.6875 C 63.078125 138.148438 62.125 137.882813 61.089844 137.882813 C 59.664063 137.882813 58.511719 138.390625 57.625 139.414063 C 56.738281 140.441406 56.296875 141.765625 56.296875 143.390625 C 56.296875 144.960938 56.703125 146.230469 57.511719 147.183594 C 58.324219 148.140625 59.394531 148.617188 60.722656 148.617188 C 61.941406 148.617188 63 148.292969 63.898438 147.648438 Z M 58.871094 154.425781 L 58.871094 153.550781 C 59.265625 153.597656 59.605469 153.621094 59.886719 153.621094 C 61.15625 153.621094 61.785156 153.257813 61.785156 152.53125 C 61.785156 151.847656 61.210938 151.507813 60.066406 151.507813 C 59.816406 151.507813 59.558594 151.527344 59.308594 151.558594 L 59.308594 149.324219 L 60.160156 149.324219 L 60.160156 150.710938 C 61.941406 150.710938 62.832031 151.292969 62.832031 152.457031 C 62.832031 153.800781 61.828125 154.472656 59.820313 154.472656 C 59.535156 154.472656 59.21875 154.457031 58.871094 154.425781 Z M 71.6875 149.613281 C 69.914063 149.613281 68.515625 149.03125 67.484375 147.867188 C 66.449219 146.699219 65.9375 145.183594 65.9375 143.324219 C 65.9375 141.304688 66.472656 139.730469 67.554688 138.59375 C 68.632813 137.457031 70.054688 136.886719 71.820313 136.886719 C 73.546875 136.886719 74.917969 137.453125 75.921875 138.582031 C 76.925781 139.710938 77.425781 141.273438 77.425781 143.273438 C 77.425781 145.160156 76.914063 146.691406 75.890625 147.863281 C 74.867188 149.03125 73.464844 149.613281 71.6875 149.613281 Z M 71.769531 137.882813 C 70.339844 137.882813 69.199219 138.363281 68.351563 139.328125 C 67.503906 140.289063 67.078125 141.628906 67.078125 143.34375 C 67.078125 144.933594 67.492188 146.210938 68.320313 147.171875 C 69.152344 148.136719 70.285156 148.617188 71.722656 148.617188 C 73.183594 148.617188 74.308594 148.144531 75.097656 147.199219 C 75.886719 146.25 76.285156 144.933594 76.285156 143.25 C 76.285156 141.519531 75.890625 140.195313 75.105469 139.265625 C 74.320313 138.34375 73.207031 137.882813 71.769531 137.882813 Z M 86.800781 148.71875 L 86.800781 147.382813 C 88.015625 148.15625 89.253906 148.546875 90.5 148.546875 C 91.828125 148.546875 92.835938 148.269531 93.519531 147.71875 C 94.207031 147.167969 94.550781 146.398438 94.550781 145.410156 C 94.550781 144.542969 94.320313 143.847656 93.859375 143.332031 C 93.398438 142.8125 92.394531 142.105469 90.855469 141.214844 C 89.132813 140.207031 88.042969 139.367188 87.585938 138.691406 C 87.125 138.015625 86.894531 137.234375 86.894531 136.347656 C 86.894531 135.144531 87.367188 134.125 88.296875 133.285156 C 89.226563 132.449219 90.46875 132.027344 92.03125 132.027344 C 93.042969 132.027344 94.050781 132.195313 95.0625 132.539063 L 95.0625 133.773438 C 94.066406 133.324219 93 133.097656 91.871094 133.097656 C 90.71875 133.097656 89.804688 133.386719 89.125 133.972656 C 88.449219 134.558594 88.113281 135.300781 88.113281 136.203125 C 88.113281 137.070313 88.34375 137.765625 88.808594 138.277344 C 89.273438 138.792969 90.269531 139.492188 91.800781 140.375 C 93.394531 141.277344 94.449219 142.078125 94.976563 142.777344 C 95.503906 143.476563 95.765625 144.28125 95.765625 145.195313 C 95.765625 146.496094 95.3125 147.558594 94.410156 148.378906 C 93.503906 149.203125 92.222656 149.613281 90.570313 149.613281 C 89.988281 149.613281 89.3125 149.523438 88.550781 149.34375 C 87.789063 149.164063 87.207031 148.957031 86.800781 148.71875 Z M 104.046875 149.613281 C 102.273438 149.613281 100.871094 149.03125 99.839844 147.867188 C 98.808594 146.699219 98.292969 145.183594 98.292969 143.324219 C 98.292969 141.304688 98.832031 139.730469 99.914063 138.59375 C 100.988281 137.457031 102.410156 136.886719 104.175781 136.886719 C 105.902344 136.886719 107.273438 137.453125 108.277344 138.582031 C 109.28125 139.710938 109.78125 141.273438 109.78125 143.273438 C 109.78125 145.160156 109.273438 146.691406 108.25 147.863281 C 107.222656 149.03125 105.824219 149.613281 104.046875 149.613281 Z M 104.125 137.882813 C 102.699219 137.882813 101.554688 138.363281 100.710938 139.328125 C 99.859375 140.289063 99.433594 141.628906 99.433594 143.34375 C 99.433594 144.933594 99.847656 146.210938 100.675781 147.171875 C 101.507813 148.136719 102.640625 148.617188 104.078125 148.617188 C 105.539063 148.617188 106.664063 148.144531 107.453125 147.199219 C 108.242188 146.25 108.640625 144.933594 108.640625 143.25 C 108.640625 141.519531 108.25 140.195313 107.464844 139.265625 C 106.675781 138.34375 105.5625 137.882813 104.125 137.882813 Z M 120.664063 148.785156 C 119.765625 149.339844 118.691406 149.613281 117.4375 149.613281 C 115.785156 149.613281 114.449219 149.046875 113.4375 147.914063 C 112.425781 146.78125 111.921875 145.292969 111.921875 143.464844 C 111.921875 141.535156 112.492188 139.957031 113.628906 138.726563 C 114.769531 137.5 116.230469 136.886719 118.023438 136.886719 C 118.945313 136.886719 119.84375 137.074219 120.714844 137.457031 L 120.714844 138.6875 C 119.84375 138.148438 118.890625 137.882813 117.855469 137.882813 C 116.429688 137.882813 115.277344 138.390625 114.390625 139.414063 C 113.503906 140.441406 113.0625 141.765625 113.0625 143.390625 C 113.0625 144.960938 113.46875 146.230469 114.277344 147.183594 C 115.089844 148.140625 116.160156 148.617188 117.488281 148.617188 C 118.707031 148.617188 119.765625 148.292969 120.664063 147.648438 Z M 124.109375 134.117188 C 123.871094 134.117188 123.664063 134.03125 123.484375 133.855469 C 123.300781 133.683594 123.207031 133.460938 123.207031 133.191406 C 123.207031 132.933594 123.300781 132.722656 123.488281 132.5625 C 123.671875 132.398438 123.878906 132.320313 124.109375 132.320313 C 124.359375 132.320313 124.574219 132.394531 124.757813 132.554688 C 124.945313 132.710938 125.039063 132.925781 125.039063 133.191406 C 125.039063 133.445313 124.945313 133.664063 124.761719 133.84375 C 124.582031 134.027344 124.367188 134.117188 124.109375 134.117188 Z M 123.578125 137.175781 L 124.667969 137.175781 L 124.667969 149.324219 L 123.578125 149.324219 Z M 135.820313 149.324219 L 135.820313 146.890625 L 135.769531 146.890625 C 135.386719 147.71875 134.824219 148.382813 134.082031 148.878906 C 133.34375 149.367188 132.523438 149.613281 131.621094 149.613281 C 130.46875 149.613281 129.554688 149.289063 128.882813 148.644531 C 128.210938 147.996094 127.875 147.175781 127.875 146.1875 C 127.875 144.070313 129.28125 142.792969 132.085938 142.351563 L 135.820313 141.792969 C 135.820313 139.183594 134.839844 137.882813 132.875 137.882813 C 131.535156 137.882813 130.238281 138.421875 128.96875 139.496094 L 128.96875 138.175781 C 129.417969 137.820313 130.03125 137.515625 130.804688 137.265625 C 131.578125 137.011719 132.300781 136.886719 132.980469 136.886719 C 134.230469 136.886719 135.199219 137.273438 135.882813 138.046875 C 136.570313 138.820313 136.914063 139.949219 136.914063 141.429688 L 136.914063 149.324219 Z M 132.472656 143.273438 C 131.199219 143.457031 130.304688 143.753906 129.792969 144.15625 C 129.277344 144.566406 129.019531 145.226563 129.019531 146.140625 C 129.019531 146.863281 129.257813 147.453125 129.734375 147.917969 C 130.214844 148.382813 130.878906 148.617188 131.734375 148.617188 C 132.910156 148.617188 133.878906 148.183594 134.65625 147.324219 C 135.429688 146.457031 135.820313 145.339844 135.820313 143.976563 L 135.820313 142.789063 Z M 140.558594 131.347656 L 141.652344 131.347656 L 141.652344 149.324219 L 140.558594 149.324219 Z M 140.558594 131.347656 "/>
</g>
<path style="fill-rule:evenodd;fill:rgb(0%,38.818359%,21.972656%);fill-opacity:1;stroke-width:5.669;stroke-linecap:butt;stroke-linejoin:miter;stroke:rgb(0%,38.818359%,21.972656%);stroke-opacity:1;stroke-miterlimit:4;" d="M 788.085938 1274.570313 C 818.007813 1370.820313 778.4375 1456.210938 728.085938 1539.882813 C 786.054688 1502.65625 837.8125 1463.28125 855.585938 1390.820313 C 864.101563 1318.554688 823.789063 1300.039063 788.085938 1274.570313 Z M 788.085938 1274.570313 " transform="matrix(0.1,0,0,-0.1,0,154.5)"/>
<path style="fill-rule:evenodd;fill:rgb(0%,38.818359%,21.972656%);fill-opacity:1;stroke-width:5.669;stroke-linecap:butt;stroke-linejoin:miter;stroke:rgb(0%,38.818359%,21.972656%);stroke-opacity:1;stroke-miterlimit:4;" d="M 657.773438 1330.820313 C 519.84375 1349.609375 524.609375 1425.3125 398.085938 1485.507813 C 521.71875 1473.632813 608.671875 1457.929688 657.773438 1330.820313 Z M 657.773438 1330.820313 " transform="matrix(0.1,0,0,-0.1,0,154.5)"/>
<path style="fill-rule:evenodd;fill:rgb(0%,38.818359%,21.972656%);fill-opacity:1;stroke-width:5.669;stroke-linecap:butt;stroke-linejoin:miter;stroke:rgb(0%,38.818359%,21.972656%);stroke-opacity:1;stroke-miterlimit:4;" d="M 593.085938 1187.382813 C 457.304688 1254.140625 525.976563 1226.132813 469.335938 1325.195313 C 530.585938 1288.867188 575.429688 1265.820313 593.085938 1187.382813 Z M 593.085938 1187.382813 " transform="matrix(0.1,0,0,-0.1,0,154.5)"/>
<path style="fill-rule:evenodd;fill:rgb(0%,38.818359%,21.972656%);fill-opacity:1;stroke-width:5.669;stroke-linecap:butt;stroke-linejoin:miter;stroke:rgb(0%,38.818359%,21.972656%);stroke-opacity:1;stroke-miterlimit:4;" d="M 613.710938 1313.945313 C 657.617188 1218.90625 708.046875 1239.21875 708.398438 1133.007813 C 792.34375 1238.75 706.640625 1280.234375 613.710938 1313.945313 Z M 613.710938 1313.945313 " transform="matrix(0.1,0,0,-0.1,0,154.5)"/>
<path style="fill-rule:evenodd;fill:rgb(54.492188%,74.021912%,14.501953%);fill-opacity:1;stroke-width:5.669;stroke-linecap:butt;stroke-linejoin:miter;stroke:rgb(54.492188%,74.021912%,14.501953%);stroke-opacity:1;stroke-miterlimit:4;" d="M 544.335938 1314.882813 C 451.09375 1342.1875 476.210938 1364.648438 422.460938 1438.632813 C 478.554688 1408.046875 528.359375 1373.085938 544.335938 1314.882813 Z M 544.335938 1314.882813 " transform="matrix(0.1,0,0,-0.1,0,154.5)"/>
<path style="fill-rule:evenodd;fill:rgb(54.492188%,74.021912%,14.501953%);fill-opacity:1;stroke-width:5.669;stroke-linecap:butt;stroke-linejoin:miter;stroke:rgb(54.492188%,74.021912%,14.501953%);stroke-opacity:1;stroke-miterlimit:4;" d="M 577.5 1474.414063 C 538.632813 1485.78125 549.101563 1495.15625 526.679688 1526.015625 C 550.078125 1513.242188 570.820313 1498.671875 577.5 1474.414063 Z M 577.5 1474.414063 " transform="matrix(0.1,0,0,-0.1,0,154.5)"/>
<path style="fill-rule:evenodd;fill:rgb(54.492188%,74.021912%,14.501953%);fill-opacity:1;stroke-width:5.669;stroke-linecap:butt;stroke-linejoin:miter;stroke:rgb(54.492188%,74.021912%,14.501953%);stroke-opacity:1;stroke-miterlimit:4;" d="M 776.835938 1226.054688 C 761.484375 1253.789063 772.460938 1253.242188 776.992188 1282.773438 C 782.96875 1262.773438 786.523438 1243.242188 776.835938 1226.054688 Z M 776.835938 1226.054688 " transform="matrix(0.1,0,0,-0.1,0,154.5)"/>
<path style="fill-rule:evenodd;fill:rgb(54.492188%,74.021912%,14.501953%);fill-opacity:1;stroke-width:5.669;stroke-linecap:butt;stroke-linejoin:miter;stroke:rgb(54.492188%,74.021912%,14.501953%);stroke-opacity:1;stroke-miterlimit:4;" d="M 778.867188 1144.570313 C 774.335938 1167.070313 781.796875 1164.296875 791.367188 1183.671875 C 791.132813 1168.59375 789.257813 1154.296875 778.867188 1144.570313 Z M 778.867188 1144.570313 " transform="matrix(0.1,0,0,-0.1,0,154.5)"/>
<path style="fill-rule:evenodd;fill:rgb(0%,38.818359%,21.972656%);fill-opacity:1;stroke-width:5.669;stroke-linecap:butt;stroke-linejoin:miter;stroke:rgb(0%,38.818359%,21.972656%);stroke-opacity:1;stroke-miterlimit:4;" d="M 829.335938 1133.007813 C 811.5625 1192.695313 897.539063 1226.914063 942.773438 1297.070313 C 923.164063 1204.960938 897.03125 1187.148438 841.523438 1117.070313 C 837.460938 1122.382813 833.398438 1127.695313 829.335938 1133.007813 Z M 829.335938 1133.007813 " transform="matrix(0.1,0,0,-0.1,0,154.5)"/>
<path style="fill-rule:evenodd;fill:rgb(54.492188%,74.021912%,14.501953%);fill-opacity:1;stroke-width:5.669;stroke-linecap:butt;stroke-linejoin:miter;stroke:rgb(54.492188%,74.021912%,14.501953%);stroke-opacity:1;stroke-miterlimit:4;" d="M 804.023438 1187.382813 C 894.296875 1239.296875 915.273438 1286.484375 877.148438 1381.445313 C 870.859375 1326.484375 855.585938 1278.90625 821.835938 1246.445313 C 815.898438 1226.757813 809.960938 1207.070313 804.023438 1187.382813 Z M 804.023438 1187.382813 " transform="matrix(0.1,0,0,-0.1,0,154.5)"/>
<path style="fill-rule:evenodd;fill:rgb(0%,38.818359%,21.972656%);fill-opacity:1;stroke-width:5.669;stroke-linecap:butt;stroke-linejoin:miter;stroke:rgb(0%,38.818359%,21.972656%);stroke-opacity:1;stroke-miterlimit:4;" d="M 654.960938 1150.351563 C 591.796875 1168.085938 614.414063 1215.9375 594.960938 1275.039063 C 633.28125 1248.046875 676.484375 1200.898438 654.960938 1150.351563 Z M 654.960938 1150.351563 " transform="matrix(0.1,0,0,-0.1,0,154.5)"/>
<path style="fill-rule:evenodd;fill:rgb(54.492188%,74.021912%,14.501953%);fill-opacity:1;stroke-width:5.669;stroke-linecap:butt;stroke-linejoin:miter;stroke:rgb(54.492188%,74.021912%,14.501953%);stroke-opacity:1;stroke-miterlimit:4;" d="M 722.460938 1380.078125 C 689.882813 1402.929688 674.375 1424.375 671.835938 1444.765625 C 660.195313 1480.976563 627.8125 1512.03125 595.898438 1543.203125 C 743.007813 1502.460938 755.195313 1377.1875 722.460938 1380.078125 Z M 722.460938 1380.078125 " transform="matrix(0.1,0,0,-0.1,0,154.5)"/>
<path style="fill-rule:evenodd;fill:rgb(54.492188%,74.021912%,14.501953%);fill-opacity:1;stroke-width:5.669;stroke-linecap:butt;stroke-linejoin:miter;stroke:rgb(54.492188%,74.021912%,14.501953%);stroke-opacity:1;stroke-miterlimit:4;" d="M 744.960938 1269.921875 C 699.53125 1271.25 679.921875 1363.515625 671.835938 1397.890625 C 719.882813 1363.4375 769.53125 1345 744.960938 1269.921875 Z M 744.960938 1269.921875 " transform="matrix(0.1,0,0,-0.1,0,154.5)"/>
<path style="fill-rule:evenodd;fill:rgb(0%,38.818359%,21.972656%);fill-opacity:1;stroke-width:5.669;stroke-linecap:butt;stroke-linejoin:miter;stroke:rgb(0%,38.818359%,21.972656%);stroke-opacity:1;stroke-miterlimit:4;" d="M 642.773438 1393.632813 C 641.835938 1451.09375 630.15625 1472.890625 590.742188 1511.757813 C 567.226563 1478.515625 626.757813 1450.3125 642.773438 1393.632813 Z M 642.773438 1393.632813 " transform="matrix(0.1,0,0,-0.1,0,154.5)"/>
</g>
</svg>
